<?xml version="1.0" encoding="UTF-8"?>
<svg id="Layer_2" data-name="Layer 2" xmlns="http://www.w3.org/2000/svg" viewBox="0 0 133.79 125.24">
  <defs>
    <style>
      .cls-1 {
        fill: #26a7e0;
      }

      .cls-1, .cls-2, .cls-3 {
        stroke-width: 0px;
      }

      .cls-2 {
        fill: #1c1c1c;
      }

      .cls-3 {
        fill: #fff;
      }
    </style>
  </defs>
  <g id="Layer_1-2" data-name="Layer 1">
    <g>
      <g>
        <path class="cls-2" d="M122.14,103.73c2.24-1.71,2.22-5.16,1.19-7.79-1.02-2.63-2.81-4.95-3.48-7.69-1.58-6.37,3.49-6.57,7.87-7.95,3.15-1,5.6-3.95,6.01-7.23.41-3.29-1.24-6.74-4.06-8.48-1.92-1.19-4.4-1.71-5.7-3.56-1.78-2.54-.4-5.99.84-8.84,1.17-2.68,2.19-5.52,2.05-8.43-.29-6.05-4.62-7.35-9.52-8.3-1.61-.31-3.29-1.12-3.95-2.62-.37-.84-.37-1.78-.32-2.7.22-4.34,1.48-8.67.9-12.98-.18-1.35-.64-2.82-1.83-3.5-1.34-.76-3.02-.21-4.39.48-3.01,1.52-5.67,3.69-8.66,5.25-2.35,1.23-6.72,2.99-9.22,1.26-1.79-1.24-2.87-4.69-3.58-6.61-.81-2.19-1.62-4.38-2.43-6.57-.74-2.01-1.97-4.38-4.11-4.41-1.81-.02-3.1,1.68-4.12,3.17-2.46,3.57-5.22,6.94-8.24,10.05-1.32,1.36-2.94,2.76-4.82,2.61-1.49-.12-2.7-1.19-3.8-2.2-1.72-1.59-3.45-3.18-5.17-4.78-1.84-1.7-4.51-3.51-6.63-2.17-1.63,1.03-1.81,3.29-1.73,5.22.16,3.72,1.46,21.59-6.78,16.7-1.19-.71-2.18-1.71-3.35-2.47-1.16-.75-2.63-1.25-3.94-.78-.12.04-.24.1-.36.16-1.03.53-1.72,1.64-1.99,2.78-.3,1.27-.18,2.6-.06,3.9.32,3.35.63,7.38-.36,10.65-.86,2.85-3.52,5.39-6.48,5.08-.79-.09-1.57-.37-2.37-.31-1.8.12-3.09,2.04-3.04,3.85.14,5.14,6.84,7.38,6.35,12.86-.26,2.9-4,4.68-6.21,6.02-2.51,1.52-5.13,3.45-5.77,6.31-.18.79-.18,1.64.15,2.38.69,1.5,2.53,2.06,4.17,2.2,3.69.31,7.75-.57,10.88,1.42,4.71,3,1.58,6.54-.15,10.27-.5,1.08-.86,2.31-.59,3.47.57,2.4,3.59,3.42,6.01,2.94,2.42-.48,4.5-1.96,6.79-2.89.49-.2,1.02-.38,1.55-.32.72.08,1.33.59,1.76,1.17,1.94,2.63.89,6.32,1.37,9.56.22,1.47.77,2.89,1.61,4.12.86,1.26,2.35,2.4,3.81,1.93,2.42-.8,3.54-4.08,5.46-5.62,1.59-1.29,3.72-2.08,5.71-1.59,2.07.5,3.6,2.24,4.75,4.03,1.3,2.02,2.32,4.21,3.02,6.51.4,1.33.71,2.71,1.43,3.89s1.99,2.15,3.38,2.06c1.75-.12,2.94-1.8,3.66-3.41,1.67-3.76,2.52-8.44,6.15-10.38,3.58-1.91,8.59-.17,10.87,2.98,1.9,2.62,4.71,6.98,8.73,6.02,1.76-.42,2.83-2.28,3.1-4.07.26-1.79-.07-3.61-.04-5.42.03-2.44.65-6.34,2.92-7.73,4.73-2.9,10.32,3.9,14.77.5Z"/>
        <path class="cls-1" d="M111.36,100.65c2.24-1.71,2.22-5.16,1.19-7.79-1.02-2.63-2.81-4.95-3.48-7.69-1.58-6.37,3.49-6.57,7.87-7.95,3.15-1,5.6-3.95,6.01-7.23.41-3.29-1.24-6.74-4.06-8.48-1.92-1.19-4.4-1.71-5.7-3.56-1.78-2.54-.4-5.99.84-8.84,1.17-2.68,2.19-5.52,2.05-8.43-.29-6.05-4.62-7.35-9.52-8.3-1.61-.31-3.29-1.12-3.95-2.62-.37-.84-.37-1.78-.32-2.7.22-4.34,1.48-8.67.9-12.98-.18-1.35-.64-2.82-1.83-3.5-1.34-.76-3.02-.21-4.39.48-3.01,1.52-5.67,3.69-8.66,5.25-2.35,1.23-6.72,2.99-9.22,1.26-1.79-1.24-2.86-4.69-3.58-6.61-.81-2.19-1.62-4.38-2.43-6.57C72.34,2.4,71.11.03,68.97,0c-1.81-.02-3.1,1.68-4.12,3.17-2.46,3.57-5.22,6.94-8.24,10.05-1.32,1.36-2.94,2.76-4.82,2.61-1.49-.12-2.7-1.19-3.8-2.2-1.72-1.59-3.45-3.18-5.17-4.78-1.84-1.7-4.51-3.51-6.63-2.17-1.63,1.03-1.81,3.29-1.73,5.22.16,3.72,1.46,21.59-6.78,16.69-1.19-.71-2.18-1.71-3.35-2.47s-2.63-1.25-3.94-.78c-.12.04-.24.1-.36.16-1.03.53-1.72,1.64-1.99,2.78-.3,1.27-.18,2.6-.06,3.9.32,3.35.63,7.38-.36,10.65-.86,2.85-3.52,5.39-6.48,5.08-.79-.09-1.57-.37-2.37-.31-1.8.13-3.09,2.04-3.04,3.85.14,5.14,6.84,7.38,6.35,12.86-.26,2.9-4,4.68-6.2,6.02-2.51,1.52-5.13,3.45-5.77,6.31-.18.79-.18,1.64.15,2.38.69,1.5,2.53,2.06,4.17,2.2,3.69.31,7.75-.57,10.88,1.42,4.71,3,1.58,6.54-.15,10.27-.5,1.08-.86,2.31-.59,3.47.57,2.4,3.59,3.42,6.01,2.94,2.42-.48,4.5-1.96,6.79-2.89.49-.2,1.02-.38,1.55-.32.72.08,1.33.59,1.76,1.17,1.94,2.63.89,6.32,1.37,9.56.22,1.47.77,2.89,1.61,4.12.86,1.26,2.35,2.4,3.81,1.93,2.42-.8,3.54-4.08,5.46-5.62,1.59-1.29,3.72-2.08,5.71-1.59,2.07.5,3.6,2.24,4.75,4.03,1.3,2.02,2.32,4.21,3.02,6.51.4,1.33.71,2.71,1.43,3.89s1.99,2.15,3.38,2.06c1.75-.12,2.94-1.8,3.66-3.41,1.67-3.76,2.52-8.44,6.15-10.38,3.58-1.91,8.59-.17,10.87,2.98,1.9,2.62,4.7,6.98,8.73,6.02,1.76-.42,2.83-2.28,3.1-4.07.26-1.79-.07-3.61-.04-5.42.03-2.44.65-6.34,2.92-7.73,4.72-2.9,10.32,3.9,14.77.5Z"/>
      </g>
      <path class="cls-3" d="M66.7,52.78v-3.73c0-1.82,1.21-2.24,2.06-2.24h5.23v-7.99l-7.2-.03c-8,0-9.81,5.96-9.81,9.78v4.21h-4.62v9.33h4.66v23.32h9.32v-23.32h6.92l.33-3.66.51-5.66h-7.41Z"/>
    </g>
  </g>
</svg>