<?xml version="1.0" encoding="UTF-8"?>
<svg id="Layer_2" data-name="Layer 2" xmlns="http://www.w3.org/2000/svg" viewBox="0 0 109.53 107.49">
  <defs>
    <style>
      .cls-1 {
        fill: #1c1c1c;
      }

      .cls-1, .cls-2, .cls-3 {
        stroke-width: 0px;
      }

      .cls-2 {
        fill: #ffbb10;
      }

      .cls-3 {
        fill: #fff;
      }
    </style>
  </defs>
  <g id="Layer_1-2" data-name="Layer 1">
    <g>
      <g>
        <path class="cls-1" d="M108.88,41.55c-2.97-17.28-16.72-32.21-33.7-36.6-3.62-.94-7.35-1.43-11.09-1.68-8.85-.6-17.94.16-26.13,3.58-9.87,4.12-18.02,12.09-22.63,21.74-4.62,9.65-5.71,20.89-3.35,31.32,1.92,8.45,6.14,16.48,12.56,22.29,5.48,4.96,10.62,5.67,17.28,7.93,1.64.56,3.53,1.37,3.92,3.06.29,1.26-.38,2.51-1.03,3.62-1.52,2.61-3.04,5.21-4.57,7.82-.49.83-.91,2.06-.12,2.62.32.23.75.25,1.15.24,3.99-.13,7.67-2.18,10.86-4.58,3.19-2.4,6.09-5.21,9.52-7.25,6.54-3.88,14.68-2.48,21.78-4.7,6.33-1.98,11.71-6.14,15.8-11.3,8.24-10.38,11.99-25.04,9.74-38.11Z"/>
        <path class="cls-2" d="M98.1,38.47c-2.97-17.27-16.72-32.21-33.7-36.6-3.62-.94-7.35-1.43-11.09-1.68-8.85-.6-17.94.16-26.13,3.58C17.32,7.89,9.17,15.86,4.56,25.51-.06,35.16-1.16,46.4,1.21,56.83c1.92,8.45,6.14,16.48,12.56,22.29,5.48,4.96,10.62,5.67,17.28,7.93,1.64.56,3.53,1.37,3.92,3.06.29,1.26-.38,2.51-1.03,3.62-1.52,2.61-3.04,5.21-4.57,7.82-.49.83-.91,2.06-.12,2.62.32.23.75.25,1.15.24,3.99-.13,7.67-2.18,10.86-4.58,3.19-2.4,6.09-5.21,9.52-7.25,6.54-3.88,14.69-2.48,21.78-4.7,6.33-1.98,11.71-6.14,15.8-11.3,8.24-10.38,11.99-25.04,9.74-38.11Z"/>
      </g>
      <g>
        <path class="cls-3" d="M48.77,26.89c6.27,0,7.01.02,9.48.14,2.29.11,3.53.49,4.36.81,1.1.43,1.88.93,2.7,1.76.82.82,1.33,1.6,1.76,2.7.32.83.7,2.07.81,4.36.11,2.48.14,3.22.14,9.48s-.02,7.01-.14,9.48c-.1,2.29-.49,3.53-.81,4.36-.43,1.1-.93,1.88-1.76,2.7-.82.82-1.6,1.33-2.7,1.76-.83.32-2.07.7-4.36.81-2.48.11-3.22.14-9.48.14s-7.01-.02-9.48-.14c-2.29-.1-3.53-.49-4.36-.81-1.1-.43-1.88-.93-2.7-1.76-.82-.82-1.33-1.6-1.76-2.7-.32-.83-.7-2.07-.81-4.36-.11-2.48-.14-3.22-.14-9.48s.02-7.01.14-9.48c.1-2.29.49-3.53.81-4.36.43-1.1.93-1.88,1.76-2.7.82-.82,1.6-1.33,2.7-1.76.83-.32,2.07-.7,4.36-.81,2.47-.11,3.22-.14,9.48-.14M48.77,22.66c-6.37,0-7.17.03-9.68.14-2.5.11-4.2.51-5.7,1.09-1.54.6-2.85,1.4-4.16,2.71s-2.11,2.61-2.71,4.16c-.58,1.49-.98,3.2-1.09,5.7-.11,2.5-.14,3.3-.14,9.68s.03,7.17.14,9.68c.11,2.5.51,4.2,1.09,5.7.6,1.54,1.4,2.85,2.71,4.16,1.3,1.3,2.61,2.11,4.16,2.71,1.49.58,3.2.98,5.7,1.09,2.5.11,3.3.14,9.68.14s7.17-.03,9.68-.14c2.5-.11,4.2-.51,5.7-1.09,1.54-.6,2.85-1.4,4.16-2.71,1.3-1.3,2.11-2.61,2.71-4.16.58-1.49.98-3.2,1.09-5.7.11-2.5.14-3.3.14-9.68s-.03-7.17-.14-9.68c-.11-2.5-.51-4.2-1.09-5.7-.6-1.54-1.4-2.85-2.71-4.16-1.3-1.3-2.61-2.11-4.16-2.71-1.49-.58-3.2-.98-5.7-1.09-2.5-.11-3.3-.14-9.68-.14"/>
        <path class="cls-3" d="M48.77,34.08c-6.66,0-12.05,5.4-12.05,12.05s5.4,12.05,12.05,12.05,12.05-5.4,12.05-12.05-5.4-12.05-12.05-12.05M48.77,53.96c-4.32,0-7.82-3.5-7.82-7.82s3.5-7.82,7.82-7.82,7.82,3.5,7.82,7.82c0,4.32-3.5,7.82-7.82,7.82"/>
        <path class="cls-3" d="M64.11,33.6c0,1.55-1.26,2.82-2.82,2.82s-2.82-1.26-2.82-2.82,1.26-2.82,2.82-2.82c1.55,0,2.82,1.26,2.82,2.82"/>
      </g>
    </g>
  </g>
</svg>