<?xml version="1.0" encoding="UTF-8"?>
<svg id="Layer_2" data-name="Layer 2" xmlns="http://www.w3.org/2000/svg" viewBox="0 0 116.38 105.06">
  <defs>
    <style>
      .cls-1 {
        fill: #66d7ff;
      }

      .cls-1, .cls-2, .cls-3 {
        stroke-width: 0px;
      }

      .cls-2 {
        fill: #1c1c1c;
      }

      .cls-3 {
        fill: #fff;
      }
    </style>
  </defs>
  <g id="Layer_1-2" data-name="Layer 1">
    <g>
      <g>
        <path class="cls-2" d="M68.31,88.53c1.55-2.48,6.1-.59,8.36-.56,4.12.06,8.27-.46,12.23-1.61,7.7-2.23,14.61-6.89,19.01-13.67,3.74-5.76,5.8-12.46,7.09-19.2,1.89-9.83,2.18-20.24-1.24-29.65s-11.03-17.67-20.77-19.99c-3.68-.88-7.52-.9-11.29-.64-6.66.45-13.66,1.95-18.45,6.59-6.73,6.51-8.16,17.88-18.05,20.92-2.78.85-5.72.92-8.6,1.32-9.63,1.34-18.92,6.94-23.31,15.62-4.39,8.68-2.98,20.35,4.33,26.76,5.72,5.02,13.72,6.25,21.14,7.95,9.32,2.14,13.29,5.67,19.25,12.34,1.08,1.21,13.12,12.69,14.34,9.89.24-.55,0-1.17-.23-1.72-1.18-2.8-1.99-5.71-2.88-8.6-.48-1.57-1.89-4.2-.91-5.77Z"/>
        <path class="cls-1" d="M57.53,85.45c1.55-2.48,6.1-.59,8.36-.56,4.12.06,8.27-.46,12.23-1.61,7.7-2.23,14.61-6.89,19.01-13.67,3.74-5.76,5.8-12.46,7.09-19.2,1.89-9.83,2.18-20.24-1.24-29.65S91.94,3.1,82.2.78c-3.68-.88-7.52-.9-11.29-.64-6.66.45-13.66,1.95-18.45,6.59-6.73,6.51-8.16,17.88-18.05,20.92-2.78.85-5.72.92-8.6,1.32-9.63,1.34-18.92,6.94-23.31,15.62-4.39,8.68-2.98,20.35,4.33,26.76,5.72,5.02,13.72,6.25,21.14,7.95,9.32,2.14,13.29,5.67,19.25,12.34,1.08,1.21,13.12,12.69,14.35,9.89.24-.55,0-1.17-.23-1.72-1.18-2.8-1.99-5.71-2.88-8.6-.49-1.58-1.9-4.2-.92-5.77Z"/>
      </g>
      <path class="cls-3" d="M80.7,37.7c-1.71.75-3.56,1.25-5.49,1.48,1.98-1.17,3.49-3.01,4.21-5.21-1.85,1.08-3.9,1.86-6.08,2.29-1.74-1.83-4.23-2.97-6.98-2.97-5.28,0-9.57,4.22-9.57,9.42,0,.74.09,1.45.24,2.15-7.95-.39-15-4.14-19.72-9.84-.82,1.39-1.3,3.01-1.3,4.73,0,3.27,1.69,6.15,4.26,7.84-1.57-.05-3.04-.47-4.33-1.18v.12c0,1.21.24,2.35.65,3.41,1.17,2.95,3.8,5.18,7.02,5.83-.8.21-1.65.33-2.52.33-.61,0-1.21-.06-1.8-.17,1.22,3.74,4.75,6.46,8.94,6.54-3.27,2.53-7.4,4.03-11.88,4.03-.77,0-1.53-.05-2.29-.13,4.24,2.67,9.27,4.23,14.67,4.23,14.96,0,24.15-10.36,26.57-21.11.43-1.9.65-3.81.65-5.68,0-.41,0-.82-.02-1.22,1.86-1.33,3.49-2.99,4.77-4.88Z"/>
    </g>
  </g>
</svg>