<?xml version="1.0" encoding="UTF-8"?>
<svg id="Layer_2" data-name="Layer 2" xmlns="http://www.w3.org/2000/svg" viewBox="0 0 117.2 86.66">
  <defs>
    <style>
      .cls-1 {
        fill: #1869ff;
      }

      .cls-1, .cls-2, .cls-3 {
        stroke-width: 0px;
      }

      .cls-2 {
        fill: #1c1c1c;
      }

      .cls-3 {
        fill: #fff;
      }
    </style>
  </defs>
  <g id="Layer_1-2" data-name="Layer 1">
    <g>
      <g>
        <path class="cls-2" d="M55.14,3.2c-10.04-.56-20.07.73-28.35,5.48s-14.64,13.29-15.83,23.92c-1.18,10.63,3.49,23.24,12.37,30.1,3.2,2.47,6.77,4.13,10.35,5.55,5.37,2.12,10.79,2.13,15.84,3.82,1.26.42,2.49,1.75,2.43,3.11-.03.72-.4,1.3-.75,1.86-.82,1.34-4.01,7.38-2.67,9.11,2.4,3.11,19.51-9.62,22.28-11.28,4.7-2.82,11.11-1.71,16.51-3.24,6.54-1.86,12.75-4.6,18.43-8.21,2.75-1.75,5.41-3.72,7.44-6.37,8.39-10.99,2.92-30.48-10.25-38.18-15.25-8.91-31.59-14.77-47.81-15.67Z"/>
        <path class="cls-1" d="M44.36.12c-10.04-.56-20.07.73-28.35,5.48S1.36,18.9.18,29.53c-1.18,10.63,3.49,23.24,12.37,30.1,3.2,2.47,6.77,4.13,10.35,5.55,5.37,2.12,10.79,2.13,15.84,3.82,1.26.42,2.49,1.75,2.43,3.11-.03.72-.4,1.3-.75,1.87-.82,1.34-4.01,7.38-2.67,9.11,2.4,3.11,19.51-9.62,22.28-11.28,4.7-2.82,11.11-1.71,16.51-3.24,6.54-1.86,12.75-4.6,18.43-8.21,2.75-1.75,5.41-3.72,7.44-6.37,8.39-10.99,2.92-30.48-10.25-38.18C76.92,6.89,60.57,1.03,44.36.12Z"/>
      </g>
      <g>
        <polygon class="cls-3" points="30.75 30.52 30.75 53.36 41.63 53.36 41.63 28.69 41.63 22.27 30.75 22.27 30.75 30.52"/>
        <path class="cls-3" d="M36.19,6.73c-3.01,0-5.44,2.44-5.44,5.44s2.44,5.44,5.44,5.44,5.44-2.43,5.44-5.44-2.43-5.44-5.44-5.44Z"/>
        <path class="cls-3" d="M77.15,31.82c-.74-5.86-3.43-9.55-11.35-9.55-4.7,0-7.85,1.74-9.14,4.2h-.13v-4.2h-8.67v31.09h9.06v-15.41c0-4.06.77-8,5.79-8s5.35,4.64,5.35,8.26v15.15h9.33v-17.08h0c0-1.59-.07-3.09-.24-4.46Z"/>
      </g>
    </g>
  </g>
</svg>